<svg id="Layer_1" data-name="Layer 1" xmlns="http://www.w3.org/2000/svg" xmlns:xlink="http://www.w3.org/1999/xlink" viewBox="0 0 1013.72 1013.7"><defs><style>.cls-1{fill:url(#linear-gradient);}.cls-2{fill:#333;}.cls-3{fill:url(#radial-gradient);}.cls-4{fill:url(#linear-gradient-2);}.cls-5{fill:url(#radial-gradient-2);}.cls-6{fill:url(#radial-gradient-3);}.cls-7{fill:url(#radial-gradient-4);}.cls-8{fill:url(#radial-gradient-5);}.cls-9{fill:url(#radial-gradient-6);}.cls-10{fill:url(#radial-gradient-7);}.cls-11{fill:url(#radial-gradient-8);}.cls-12{fill:url(#radial-gradient-9);}.cls-13{fill:url(#linear-gradient-3);}.cls-14{fill:#c2d7e8;}.cls-15{fill:url(#linear-gradient-4);}.cls-16{fill:#12404f;}.cls-17{fill:url(#linear-gradient-5);}.cls-18{fill:url(#linear-gradient-6);}.cls-19{fill:url(#linear-gradient-7);}.cls-20{fill:url(#linear-gradient-8);}</style><linearGradient id="linear-gradient" x1="-73.52" y1="1069.8" x2="1001.93" y2="30.57" gradientTransform="matrix(1, 0, 0, -1, 0, 1016)" gradientUnits="userSpaceOnUse"><stop offset="0" stop-color="#dff4ff"/><stop offset="0.1" stop-color="#d6eaf5"/><stop offset="0.27" stop-color="#bfd0d9"/><stop offset="0.49" stop-color="#98a5ac"/><stop offset="0.75" stop-color="#646b6e"/><stop offset="1" stop-color="#2b2b2b"/></linearGradient><radialGradient id="radial-gradient" cx="-5.64" cy="981.63" r="720.11" gradientTransform="matrix(1, 0, 0, -1, 0, 1016)" gradientUnits="userSpaceOnUse"><stop offset="0" stop-color="#fff"/><stop offset="0.31" stop-color="#a8a8a8"/><stop offset="0.65" stop-color="#4f4f4f"/><stop offset="0.89" stop-color="#161616"/><stop offset="1"/></radialGradient><linearGradient id="linear-gradient-2" x1="457.36" y1="488" x2="1142.31" y2="-173.89" gradientTransform="matrix(-1, 0, 0, 1, 1334.98, 377.31)" gradientUnits="userSpaceOnUse"><stop offset="0" stop-color="#dff4ff"/><stop offset="0.09" stop-color="#d6eaf5"/><stop offset="0.23" stop-color="#bed0d9"/><stop offset="0.42" stop-color="#96a4ac"/><stop offset="0.65" stop-color="#5f686d"/><stop offset="0.91" stop-color="#1a1d1e"/><stop offset="1"/></linearGradient><radialGradient id="radial-gradient-2" cx="-134.97" cy="1054.97" r="1730.31" gradientTransform="matrix(1, 0, 0, -1, -0.68, 1015.15)" gradientUnits="userSpaceOnUse"><stop offset="0" stop-color="#fff"/><stop offset="0.31" stop-color="#fdfdfd"/><stop offset="0.45" stop-color="#f6f6f6"/><stop offset="0.56" stop-color="#e9e9e9"/><stop offset="0.65" stop-color="#d7d7d7"/><stop offset="0.72" stop-color="#bfbfbf"/><stop offset="0.79" stop-color="#a2a2a2"/><stop offset="0.86" stop-color="gray"/><stop offset="0.92" stop-color="#575757"/><stop offset="0.97" stop-color="#2b2b2b"/><stop offset="1" stop-color="#141414"/></radialGradient><radialGradient id="radial-gradient-3" cx="-135.04" cy="1054.96" r="1730.46" xlink:href="#radial-gradient-2"/><radialGradient id="radial-gradient-4" cx="-135.14" cy="1055.47" r="1731.79" gradientTransform="matrix(1, 0, 0, -1, 0, 1016)" xlink:href="#radial-gradient-2"/><radialGradient id="radial-gradient-5" cx="174.93" cy="815.08" r="466.72" gradientTransform="matrix(1, 0, 0, -1, 0, 1016)" gradientUnits="userSpaceOnUse"><stop offset="0" stop-color="#e6e6e6"/><stop offset="0.1" stop-color="#d6d6d6"/><stop offset="0.31" stop-color="#adadad"/><stop offset="0.59" stop-color="#6c6c6c"/><stop offset="0.93" stop-color="#121212"/><stop offset="1"/></radialGradient><radialGradient id="radial-gradient-6" cx="302.59" cy="752.31" r="678.74" gradientTransform="matrix(1, 0, 0, -1, 0, 1016)" gradientUnits="userSpaceOnUse"><stop offset="0" stop-color="#fff"/><stop offset="0.34" stop-color="#fdfdfd"/><stop offset="0.48" stop-color="#f6f6f6"/><stop offset="0.58" stop-color="#eaeaea"/><stop offset="0.67" stop-color="#d8d8d8"/><stop offset="0.74" stop-color="#c2c2c2"/><stop offset="0.8" stop-color="#a6a6a6"/><stop offset="0.86" stop-color="#848484"/><stop offset="0.91" stop-color="#5f5f5f"/><stop offset="0.95" stop-color="#404040"/><stop offset="0.96" stop-color="#404040"/><stop offset="1" stop-color="#404040"/><stop offset="1"/></radialGradient><radialGradient id="radial-gradient-7" cx="103.3" cy="1009.59" r="1202.06" gradientTransform="matrix(1, 0, 0, -1, 0, 1016)" gradientUnits="userSpaceOnUse"><stop offset="0.17" stop-color="#fff"/><stop offset="0.2" stop-color="#e0eff7"/><stop offset="0.24" stop-color="#b2d9ec"/><stop offset="0.29" stop-color="#8bc5e2"/><stop offset="0.34" stop-color="#6bb5da"/><stop offset="0.38" stop-color="#52a9d4"/><stop offset="0.44" stop-color="#41a0cf"/><stop offset="0.49" stop-color="#369bcd"/><stop offset="0.56" stop-color="#39c"/><stop offset="0.61" stop-color="#3396c8"/><stop offset="0.66" stop-color="#328ebc"/><stop offset="0.7" stop-color="#3180a8"/><stop offset="0.75" stop-color="#2f6d8c"/><stop offset="0.8" stop-color="#2d5468"/><stop offset="0.85" stop-color="#2a373d"/><stop offset="0.87" stop-color="#292929"/></radialGradient><radialGradient id="radial-gradient-8" cx="103.3" cy="1009.6" r="1202.04" xlink:href="#radial-gradient-7"/><radialGradient id="radial-gradient-9" cx="181.31" cy="809.2" r="457.77" gradientTransform="matrix(1, 0, 0, -1, -0.68, 1015.15)" xlink:href="#radial-gradient-5"/><linearGradient id="linear-gradient-3" x1="447.51" y1="923.5" x2="893.93" y2="492.11" gradientTransform="matrix(1, 0, 0, -1, 0, 1016)" gradientUnits="userSpaceOnUse"><stop offset="0" stop-color="#f0f4ff"/><stop offset="0.11" stop-color="#ebeff9"/><stop offset="0.25" stop-color="#dce0ea"/><stop offset="0.4" stop-color="#c4c7cf"/><stop offset="0.57" stop-color="#a2a4ab"/><stop offset="0.75" stop-color="#76777c"/><stop offset="0.93" stop-color="#414243"/><stop offset="1" stop-color="#2b2b2b"/></linearGradient><linearGradient id="linear-gradient-4" x1="85.17" y1="559.28" x2="531.59" y2="127.89" xlink:href="#linear-gradient-3"/><linearGradient id="linear-gradient-5" x1="301.14" y1="713.11" x2="532.63" y2="489.42" gradientTransform="matrix(1, 0, 0, -1, -0.68, 1015.15)" gradientUnits="userSpaceOnUse"><stop offset="0" stop-color="#c2d7e8"/><stop offset="0.13" stop-color="#bacfe1"/><stop offset="0.34" stop-color="#a4bacd"/><stop offset="0.6" stop-color="#8098ac"/><stop offset="0.89" stop-color="#4e697f"/><stop offset="1" stop-color="#3a566d"/></linearGradient><linearGradient id="linear-gradient-6" x1="185.2" y1="658.3" x2="627.14" y2="231.25" gradientTransform="matrix(1, 0, 0, -1, -0.68, 1015.15)" gradientUnits="userSpaceOnUse"><stop offset="0" stop-color="#f0f4ff"/><stop offset="0.1" stop-color="#e8ebf6"/><stop offset="0.26" stop-color="#d1d4dd"/><stop offset="0.46" stop-color="#abaeb5"/><stop offset="0.7" stop-color="#78797d"/><stop offset="0.96" stop-color="#363637"/><stop offset="1" stop-color="#2b2b2b"/></linearGradient><linearGradient id="linear-gradient-7" x1="510.94" y1="499.89" x2="665.95" y2="350.09" gradientTransform="matrix(1, 0, 0, -1, -0.68, 1015.15)" gradientUnits="userSpaceOnUse"><stop offset="0" stop-color="#d9def0"/><stop offset="0.12" stop-color="#d4daec"/><stop offset="0.26" stop-color="#c7cfe2"/><stop offset="0.41" stop-color="#b0bcd1"/><stop offset="0.57" stop-color="#90a1b8"/><stop offset="0.72" stop-color="#677f99"/><stop offset="0.88" stop-color="#355674"/><stop offset="0.97" stop-color="#173d5d"/></linearGradient><linearGradient id="linear-gradient-8" x1="352.36" y1="820.38" x2="793.81" y2="393.79" gradientTransform="matrix(1, 0, 0, -1, -0.68, 1015.15)" xlink:href="#linear-gradient-3"/></defs><title>BMW</title><path class="cls-1" d="M507.54.85C227.62.85.68,227.77.68,507.7s226.94,506.85,506.86,506.85S1014.4,787.62,1014.4,507.7,787.48.85,507.54.85Zm0,988.35C241.6,989.2,26,773.62,26,507.7S241.6,26.18,507.54,26.18,989.05,241.77,989.05,507.7,773.48,989.2,507.54,989.2Z" transform="translate(-0.68 -0.85)"/><path class="cls-2" d="M992.68,507.7c0,267.91-217.23,485.13-485.14,485.13S22.42,775.61,22.42,507.69,239.62,22.56,507.54,22.56s485.14,217.2,485.14,485.13Z" transform="translate(-0.68 -0.85)"/><path class="cls-3" d="M989.05,507.7c0,265.93-215.57,481.5-481.51,481.5S26,773.62,26,507.7,241.6,26.18,507.54,26.18,989.05,241.77,989.05,507.7Z" transform="translate(-0.68 -0.85)"/><path class="cls-4" d="M830.36,507.7c0,178.28-144.53,322.8-322.82,322.8S184.72,686,184.72,507.7,329.25,184.88,507.54,184.88,830.36,329.41,830.36,507.7Z" transform="translate(-0.68 -0.85)"/><polygon points="519.79 175.31 553.32 86.43 553.32 175.31 578.79 175.31 578.79 48.02 540.52 48.02 505.7 139.16 506.04 139.16 471.22 48.02 432.95 48.02 432.95 175.31 458.42 175.31 458.42 86.43 491.95 175.31 519.79 175.31"/><polygon points="869.31 232.38 825.8 295.83 894.15 262.22 912.68 284.45 805.12 338.46 783.38 312.14 825.08 249.28 824.83 248.97 755.47 278.65 733.49 252.51 806.02 156.47 824.56 178.71 779.15 239.87 849.43 208.52 869.31 232.38"/><path class="cls-2" d="M282.11,208.92c-10.25-10-26.07-13-40.94-3.73a28.28,28.28,0,0,0,.19-19c-6.41-11.66-8.66-13.14-13.9-17.56-17.1-14.32-35.08-2.09-47.93,13.22l-62.12,74,97.65,81.92,65.5-78c15-17.84,17.28-35.52,1.55-50.82Zm-126.32,35.7,37.31-44.46c4.33-5.15,14.11-4.94,20.38.34,6.91,5.79,6.93,14,2.29,19.54l-36.9,44ZM258.72,252l-38.9,46.35-24.35-20.47,39.18-46.71c4.43-5.28,14.31-6.82,21-1.23,7.5,6.31,8.25,15.91,3.09,22.06Z" transform="translate(-0.68 -0.85)"/><polygon class="cls-5" points="520.06 170.39 553.59 81.52 553.59 170.39 579.06 170.39 579.06 43.1 540.78 43.1 505.97 134.24 506.3 134.24 471.49 43.1 433.21 43.1 433.21 170.39 458.68 170.39 458.68 81.52 492.22 170.39 520.06 170.39"/><polygon class="cls-6" points="869.56 223.84 826.07 287.29 894.41 253.67 912.93 275.91 805.38 329.92 783.64 303.6 825.35 240.74 825.1 240.42 755.72 270.11 733.76 243.96 806.29 147.93 824.83 170.16 779.42 231.32 849.68 199.99 869.56 223.84"/><path class="cls-7" d="M277.55,206.41c-10.23-10-26.07-13-40.92-3.74a28.34,28.34,0,0,0,.17-19c-6.41-11.68-8.64-13.14-13.92-17.57-17.1-14.33-35.06-2.1-47.89,13.23l-62.14,74,97.65,81.93L276,257.22c15-17.84,17.28-35.51,1.55-50.8Zm-126.32,35.7,37.31-44.45c4.31-5.15,14.09-4.95,20.38.32,6.91,5.81,6.93,14,2.27,19.54l-36.87,44Zm103,7.39-38.9,46.35-24.4-20.47,39.21-46.72c4.43-5.27,14.29-6.81,21-1.22,7.55,6.32,8.29,15.9,3.13,22.05Z" transform="translate(-0.68 -0.85)"/><path class="cls-8" d="M195.47,507.7c0-172.36,139.72-312.08,312.07-312.08S819.61,335.34,819.61,507.7,679.91,819.77,507.54,819.77,195.47,680.05,195.47,507.7Z" transform="translate(-0.68 -0.85)"/><path class="cls-9" d="M204.44,507.7c0-167.4,135.7-303.11,303.1-303.11S810.66,340.3,810.66,507.7,674.94,810.81,507.54,810.81,204.44,675.1,204.44,507.7Z" transform="translate(-0.68 -0.85)"/><path class="cls-10" d="M204,507.7H507.54V204.12C339.87,204.12,204,340,204,507.7Z" transform="translate(-0.68 -0.85)"/><path class="cls-11" d="M507.54,507.7V811.28c167.67,0,303.58-135.93,303.58-303.58Z" transform="translate(-0.68 -0.85)"/><polygon class="cls-12" points="812.95 501.46 512.24 501.46 512.24 200.75 501.48 200.75 501.48 501.46 200.77 501.46 200.77 512.23 501.48 512.23 501.48 812.94 512.24 812.94 512.24 512.23 812.95 512.23 812.95 501.46"/><path class="cls-13" d="M512.92,210.11C673.06,213,802.29,342.18,805.15,502.31h5.36C807.65,339.21,676,207.57,512.92,204.72v5.39Z" transform="translate(-0.68 -0.85)"/><path class="cls-14" d="M209.41,502.27c2.85-160.35,132.26-289.75,292.6-292.6v-5.38c-163.34,2.86-295.12,134.67-298,298h5.38Z" transform="translate(-0.68 -0.85)"/><path class="cls-15" d="M502.16,805.28C342,802.44,212.79,673.21,209.95,513.07h-5.38C207.43,676.18,339,807.82,502.16,810.67v-5.39Z" transform="translate(-0.68 -0.85)"/><path class="cls-16" d="M805.15,513.07c-2.87,160.14-132.09,289.36-292.23,292.21v5.39C676,807.82,807.67,676.18,810.52,513.07Z" transform="translate(-0.68 -0.85)"/><polygon class="cls-17" points="495.72 203.43 495.72 495.55 203.61 495.55 203.61 501.31 495.72 501.31 501.48 501.31 501.48 495.55 501.48 203.43 495.72 203.43"/><polygon class="cls-18" points="495.23 807 495.23 518.39 206.03 518.39 206.03 512.7 495.23 512.7 500.92 512.7 500.92 518.39 500.92 807 495.23 807"/><polygon class="cls-19" points="518.41 807 518.41 518.39 807.01 518.39 807.01 512.7 518.41 512.7 512.74 512.7 512.74 518.39 512.74 807 518.41 807"/><polygon class="cls-20" points="518.41 206.01 518.41 494.61 807.01 494.61 807.01 500.3 518.41 500.3 512.74 500.3 512.74 494.61 512.74 206.01 518.41 206.01"/></svg>